<svg xmlns="http://www.w3.org/2000/svg"  viewBox="0 0 48 48" width="480px" height="480px"><path fill="#ff3d00" d="M10.1 15.9c-.5 0-1.1-.2-1.5-.5-1.1-.8-1.3-2.4-.5-3.5C11.9 6.9 17.7 4 24 4s12.1 2.9 15.9 7.9c.8 1.1.6 2.7-.5 3.5-1.1.8-2.7.6-3.5-.5C33 11.2 28.7 9 24 9s-9 2.2-11.9 5.9C11.6 15.6 10.8 15.9 10.1 15.9zM27.9 43.5c-1.1 0-2.2-.8-2.4-1.9-.3-1.3.5-2.7 1.9-3C34.2 37 39 31 39 24c0-1-.1-2-.3-3-.3-1.4.6-2.7 1.9-3 1.3-.3 2.7.6 3 1.9.3 1.3.4 2.7.4 4 0 9.4-6.4 17.4-15.6 19.5C28.3 43.5 28.1 43.5 27.9 43.5zM20.1 43.5c-.2 0-.4 0-.6-.1C10.4 41.4 4 33.4 4 24c0-1.4.1-2.7.4-4 .3-1.4 1.6-2.2 3-1.9 1.4.3 2.2 1.6 1.9 3C9.1 22 9 23 9 24c0 7 4.8 13.1 11.7 14.6 1.3.3 2.2 1.6 1.9 3C22.3 42.8 21.3 43.5 20.1 43.5z"/><path fill="#cfd8dc" d="M30,24c0,3.3-2.7,6-6,6c-3.3,0-6-2.7-6-6s2.7-6,6-6C27.3,18,30,20.7,30,24z"/><path fill="#ff3d00" d="M30,24H18c0-3.3,2.7-6,6-6C27.3,18,30,20.7,30,24z"/><path fill="#455a64" d="M18,24c0,0.3,0,0.7,0.1,1h11.8c0.1-0.3,0.1-0.7,0.1-1s0-0.7-0.1-1H18.1C18,23.3,18,23.7,18,24z"/><path fill="#455a64" d="M27,24c0,1.7-1.3,3-3,3s-3-1.3-3-3s1.3-3,3-3S27,22.3,27,24z"/><path fill="#fff" d="M25,24c0,0.6-0.4,1-1,1s-1-0.4-1-1s0.4-1,1-1S25,23.4,25,24z"/></svg>